<?xml version="1.0" encoding="utf-8"?>
<!-- Generator: Adobe Illustrator 23.0.1, SVG Export Plug-In . SVG Version: 6.00 Build 0)  -->
<svg version="1.1" id="Layer_1" xmlns="http://www.w3.org/2000/svg" xmlns:xlink="http://www.w3.org/1999/xlink" x="0px" y="0px"
	 viewBox="0 0 918.9 128.7" style="enable-background:new 0 0 918.9 128.7;" xml:space="preserve">
<style type="text/css">
	.st0{fill:#FFFFFF;}
</style>
<g>
	<g>
		<path class="st0" d="M358.1,62l39,50.1h-28l-35.7-46.8v46.8H310V16.6h23.5v42.7l34.5-42.7h27.8L358.1,62z"/>
		<polygon class="st0" points="431.1,92.4 476.5,92.4 476.5,112.1 407.6,112.1 407.6,16.6 474.3,16.6 474.3,36.2 431.1,36.2 
			431.1,53.7 470.1,53.7 470.1,72.8 431.1,72.8 		"/>
		<polygon class="st0" points="486.1,16.6 486.1,36.2 515.2,36.2 515.2,112.1 538.5,112.1 538.5,36.2 567.5,36.2 567.5,16.6 		"/>
		<polygon class="st0" points="486.1,16.6 486.1,36.2 515.2,36.2 515.2,112.1 538.5,112.1 538.5,36.2 567.5,36.2 567.5,16.6 		"/>
		<g>
			<path class="st0" d="M64.9,75.4l28.7,36.7H66.7l-34.2-46v46H9V16.6h43c20.5,0,34.8,12.7,34.8,31C86.8,60.5,78.4,72.3,64.9,75.4z
				 M63.6,47.8c0-7.1-5.6-12-13.8-12H32.6V60h17.2C58.1,60,63.6,55.1,63.6,47.8z"/>
		</g>
		<g>
			<path class="st0" d="M150.3,35.6c17.2,0,30.7,13.2,30.7,31.3c0,14.3-7.1,22.9-16.6,29.3l13.1,17.5c16.3-11.1,26.6-26.6,26.6-46.9
				c0-30-23.8-51.8-53.7-51.8S96.6,36.9,96.6,66.8c0,20.3,10.2,35.8,26.6,46.9l13.1-17.5c-9.6-6.5-16.6-15-16.6-29.3
				C119.6,48.7,133.1,35.6,150.3,35.6z"/>
			<path class="st0" d="M286.4,85.7l12.3,16.7c-8.9,7.9-20,11.3-33.6,11.3c-26.9,0-50-19.6-50-49.5c0-29.3,23-49.2,50-49.2
				c13,0,24.7,3.4,33.5,10.3l-12.7,17.4c-5.2-4.1-11.3-7.2-20.6-7.2c-14.8,0-26.7,11.8-26.7,29.1c0,17,11.9,28.5,27.2,28.5
				C274.6,93.1,281.1,89.8,286.4,85.7z"/>
		</g>
	</g>
	<g>
		<path class="st0" d="M608.7,64.8c0-30,22.4-49.3,49.8-49.3c13.3,0,24,4,30.9,9.7l-10.1,18.4c-4.2-3.9-11.6-7.4-20.6-7.4
			c-15,0-27.3,11.4-27.3,28.2c0,16.3,11.4,28.5,27.5,28.5c10.1,0,17.5-3.8,22.4-8.2l9,17.9c-7.8,6.4-18.4,11-32.1,11
			C630.1,113.6,608.7,93.4,608.7,64.8z"/>
		<path class="st0" d="M761.3,94.8h-36.7l-5.9,17.5h-22l34.8-95.4h23.9l34.9,95.4h-23.1L761.3,94.8z M755.4,77.6l-12.5-37l-12.5,37
			H755.4z"/>
		<path class="st0" d="M885.6,16.9v95.4h-13.4l-51.7-62.8v62.8h-20.8V16.8H821l43.8,52.4V16.8C864.8,16.8,885.6,16.8,885.6,16.9z"/>
	</g>
</g>
<g>
	<path class="st0" d="M901.2,19.3h-4.4v12.2h-2.5V19.3h-4.4v-2.4h11.3L901.2,19.3L901.2,19.3z M918.9,16.9v14.6h-2.5V21.1l-4.6,7.1
		h-1.4l-4.7-7.1v10.4h-2.5V16.9h2.5L911,25l5.3-8.1H918.9z"/>
</g>
</svg>
